<?xml version="1.0" encoding="utf-8"?>
<!-- Generator: Adobe Illustrator 23.0.1, SVG Export Plug-In . SVG Version: 6.00 Build 0)  -->
<svg version="1.1" id="Layer_1" xmlns="http://www.w3.org/2000/svg" xmlns:xlink="http://www.w3.org/1999/xlink" x="0px" y="0px"
	 viewBox="0 0 32 32" style="enable-background:new 0 0 32 32;" xml:space="preserve">
<style type="text/css">
	.st0{fill:#FFFFFF;}
	.st1{fill:none;}
	.st2{font-family:'Roboto-Condensed';}
	.st3{font-size:11px;}
	.st4{font-size:9px;}
</style>
<g>
	<path d="M27.9,4.7L3.2,9H15l11.3-1.9L26.7,9h2L27.9,4.7z M2,10v1v1.5V25v1h1h26h1v-1V11v-1h-1H4.5H3H2z M6.9,12H25
		c0,0.2-0.1,0.3-0.1,0.5c0,1.4,1.1,2.5,2.5,2.5c0.2,0,0.3,0,0.5-0.1V21c-0.2,0-0.3-0.1-0.5-0.1c-1.4,0-2.5,1.1-2.5,2.5
		c0,0.2,0,0.3,0.1,0.5H6.9C7,23.8,7,23.7,7,23.5C7,22.1,5.9,21,4.5,21c-0.2,0-0.3,0-0.5,0.1V15c0.2,0,0.3,0,0.5,0
		C5.9,15,7,13.9,7,12.5C7,12.3,7,12.2,6.9,12z M16,13c-2.7,0-5,2.3-5,5s2.3,5,5,5s5-2.3,5-5S18.7,13,16,13z M16,15c1.7,0,3,1.3,3,3
		s-1.3,3-3,3s-3-1.3-3-3S14.3,15,16,15z"/>
</g>
<g id="Layer_4">
</g>
<g id="Layer_3">
	<rect x="9.2" y="12.7" class="st0" width="13.8" height="10.5"/>
	<rect x="10.1" y="13.2" class="st1" width="9.5" height="8.8"/>
	<text transform="matrix(1 0 0 0.9 11.1372 21.7599)" class="st2 st3">R</text>
	<rect x="16.4" y="13.4" class="st1" width="9.5" height="8.8"/>
	<text transform="matrix(1 0 0 1 17.3723 21.8428)" class="st2 st4">s</text>
</g>
</svg>
