<svg xmlns="http://www.w3.org/2000/svg" viewBox="0 0 64 64" width="512px" height="512px"><linearGradient id="mNIcIx_VPpxQD4Hibr7jua" x1="32.512" x2="32.512" y1="7" y2="58" gradientUnits="userSpaceOnUse" spreadMethod="reflect"><stop offset="0" stop-color="#1a6dff"/><stop offset="1" stop-color="#c822ff"/></linearGradient><path fill="url(#mNIcIx_VPpxQD4Hibr7jua)" d="M55,35h0.858C57.439,35,58,33.237,58,31.723c-0.027-5.363-3.167-9.93-8.055-11.812 c-0.375-2.369-2.425-4.433-2.521-4.528c-0.359-0.357-0.93-0.39-1.328-0.073c-0.139,0.111-3.396,2.752-3.034,6.43v0.721l-0.733,0.729 c-0.835,0.421-1.763,0.936-2.743,1.479c-1.699,0.942-3.625,2.01-5.539,2.84l-7.213,3.599c1.143-1.093,2.293-2.073,3.161-2.812 c0.633-0.54,1.134-0.967,1.436-1.268c2.764-2.75,3.957-6.23,3.358-9.799c-0.638-3.802-3.275-7.164-7.055-8.991 C26.057,7.425,23.947,7,22.73,7l-0.125,0c-0.188,0.002-0.55,0.004-1.008,0c-0.053,0-0.106,0-0.159,0 C12.96,7,8.64,13.19,8.132,14.383c-0.297,0.696-0.026,1.122,0.161,1.314c0.283,0.29,0.759,0.381,1.133,0.233 c2.732-1.088,4.632-0.63,5.774,0.097c1.612,1.028,2.685,2.907,2.798,4.905c0.116,2.024-0.25,2.523-3.149,5.815l-0.852,0.969 c-0.542,0.619-1.044,1.181-1.508,1.7c-1.954,2.187-3.245,3.631-4.016,5.399c-1.955,4.489-1.932,9.658,0.06,13.826 c2.984,6.244,7.352,9.13,14.197,9.358h2.284H47c0.552,0,1-0.448,1-1c0-2.674-2.445-3.863-4.727-4.283 c0.975-1.313,2.112-3.397,2.214-6.054c0.051-1.316-0.162-2.628-0.623-3.932C45.621,42.926,46.524,43,47.833,43 c1.759,0,2.742-0.27,3.693-0.532c1.036-0.285,2.107-0.579,4.473-0.579c0.515,0,0.945-0.39,0.995-0.902 c0.009-0.091,0.184-2.254-3.025-3.273c-0.799-0.253-1.53-0.395-2.238-0.532c-1.831-0.354-3.367-0.659-5.136-2.992 C49.379,35.032,52.578,34.988,55,35z M10.338,47.779c-1.746-3.653-1.757-8.201-0.03-12.165c0.642-1.474,1.848-2.823,3.673-4.866 c0.468-0.523,0.975-1.09,1.521-1.715l0.848-0.965c2.928-3.325,3.812-4.329,3.645-7.251c-0.15-2.628-1.576-5.11-3.72-6.478 c-1.473-0.938-3.16-1.131-4.968-0.935c1.74-1.806,5.124-4.47,10.271-4.405c0.472,0.003,0.845,0.002,1.041,0l0.111,0 c0.979,0,2.792,0.388,4.133,1.037c3.197,1.546,5.423,4.357,5.954,7.521c0.488,2.912-0.504,5.771-2.796,8.051 c-0.248,0.247-0.746,0.671-1.323,1.163c-1.872,1.595-5.003,4.265-6.798,6.944c-0.083,0.123-0.124,0.26-0.146,0.399 c-5.63,4.604-5.782,11.069-5.744,12.456C16.009,46.64,16,46.705,16,46.773c0,3.833,2.061,7.196,5.148,9.106 C16.039,55.31,12.75,52.825,10.338,47.779z M18.002,46.811c0.002-0.037,0.017-0.071,0.014-0.11c0-0.006-0.003-0.06-0.005-0.141 C18.128,41.822,22.111,38,27,38c4.962,0,9,3.936,9,8.773s-4.038,8.773-9,8.773C22.051,55.546,18.024,51.631,18.002,46.811z M51.351,39.146c0.651,0.125,1.325,0.256,2.012,0.474c0.325,0.104,0.591,0.218,0.806,0.335c-1.463,0.115-2.358,0.361-3.174,0.585 C50.098,40.787,49.322,41,47.833,41c-2.772,0-3.147-0.279-4.72-1.597c-0.654-0.939-1.427-1.871-2.348-2.793 c-0.052-0.052-1.299-1.287-3.731-2.504c-0.494-0.247-1.095-0.047-1.342,0.447c-0.247,0.494-0.047,1.095,0.447,1.342 c2.117,1.059,3.203,2.12,3.211,2.128c2.847,2.848,4.24,5.721,4.14,8.539c-0.132,3.738-2.901,6.184-2.926,6.206 c-0.317,0.272-0.431,0.713-0.287,1.105s0.518,0.653,0.936,0.654c0.04,0,3.36,0.056,4.447,1.474H32.648 c3.2-1.886,5.352-5.311,5.352-9.227C38,40.833,33.065,36,27,36c-2.232,0-4.307,0.658-6.043,1.781 c1.074-1.38,2.537-2.699,4.529-3.762c0.004-0.002,0.007-0.007,0.011-0.009l9.395-4.689c1.955-0.846,3.926-1.939,5.665-2.904 c1.017-0.564,1.978-1.097,2.81-1.511c0.096-0.048,0.184-0.111,0.26-0.187l1.142-1.136c0.189-0.188,0.295-0.443,0.295-0.709 l-0.005-1.233c-0.172-1.769,0.867-3.271,1.6-4.093c0.619,0.806,1.346,2.013,1.346,3.088c0,0.432,0.278,0.815,0.688,0.95 c4.415,1.449,7.284,5.431,7.308,10.138c-0.002,0.476-0.121,1.062-0.25,1.275l-0.9,0.004c-3.242,0.022-7.282,0.052-10.133-1.838 c-0.182-0.121-0.389-0.156-0.592-0.148c-0.177-0.012-0.358,0.007-0.527,0.096c-0.489,0.256-0.677,0.861-0.42,1.35 C46.157,38.142,48.68,38.63,51.351,39.146z"/><linearGradient id="mNIcIx_VPpxQD4Hibr7jub" x1="27" x2="27" y1="43" y2="51" gradientUnits="userSpaceOnUse" spreadMethod="reflect"><stop offset="0" stop-color="#6dc7ff"/><stop offset="1" stop-color="#e6abff"/></linearGradient><path fill="url(#mNIcIx_VPpxQD4Hibr7jub)" d="M27 43A4 4 0 1 0 27 51A4 4 0 1 0 27 43Z"/></svg>